<svg width="53" height="53" viewBox="0 0 53 53" fill="none" xmlns="http://www.w3.org/2000/svg">
<path d="M46.5295 37.1663L41.9582 32.4846C40.975 31.5499 39.7346 30.9306 38.3967 30.7063C37.0587 30.482 35.6842 30.663 34.4499 31.2259L32.4624 29.2384C34.8045 26.109 35.8741 22.2085 35.4559 18.3222C35.0377 14.4359 33.1628 10.8523 30.2086 8.29276C27.2545 5.73324 23.4403 4.38789 19.5341 4.52751C15.6278 4.66714 11.9195 6.28139 9.15558 9.04529C6.39168 11.8092 4.77743 15.5175 4.6378 19.4238C4.49818 23.33 5.84353 27.1442 8.40305 30.0983C10.9626 33.0525 14.5462 34.9274 18.4325 35.3456C22.3188 35.7638 26.2193 34.6942 29.3486 32.3521L31.3141 34.3175C30.6849 35.5534 30.4594 36.9555 30.6694 38.3263C30.8794 39.6971 31.5142 40.9675 32.4845 41.9584L37.1661 46.64C38.4083 47.8807 40.0922 48.5775 41.8478 48.5775C43.6034 48.5775 45.2873 47.8807 46.5295 46.64C47.1605 46.023 47.6619 45.2862 48.0042 44.4727C48.3465 43.6593 48.5228 42.7857 48.5228 41.9031C48.5228 41.0206 48.3465 40.147 48.0042 39.3336C47.6619 38.5201 47.1605 37.7833 46.5295 37.1663ZM27.8028 27.8029C26.2575 29.3444 24.29 30.3932 22.1489 30.817C20.0078 31.2408 17.7891 31.0205 15.7731 30.1839C13.7572 29.3474 12.0343 27.9321 10.8223 26.117C9.61026 24.3018 8.96339 22.1681 8.96339 19.9854C8.96339 17.8028 9.61026 15.6691 10.8223 13.8539C12.0343 12.0387 13.7572 10.6235 15.7731 9.78694C17.7891 8.95041 20.0078 8.73011 22.1489 9.1539C24.29 9.57768 26.2575 10.6265 27.8028 12.1679C28.8311 13.1936 29.6469 14.4121 30.2035 15.7535C30.7602 17.095 31.0467 18.5331 31.0467 19.9854C31.0467 21.4378 30.7602 22.8759 30.2035 24.2174C29.6469 25.5588 28.8311 26.7773 27.8028 27.8029ZM43.4157 43.4159C43.2104 43.6228 42.9662 43.7871 42.6971 43.8992C42.428 44.0114 42.1393 44.0691 41.8478 44.0691C41.5563 44.0691 41.2676 44.0114 40.9985 43.8992C40.7294 43.7871 40.4852 43.6228 40.2799 43.4159L35.5982 38.7342C35.3912 38.5289 35.227 38.2847 35.1148 38.0155C35.0027 37.7464 34.945 37.4578 34.945 37.1663C34.945 36.8747 35.0027 36.5861 35.1148 36.317C35.227 36.0479 35.3912 35.8037 35.5982 35.5984C35.8035 35.3914 36.0478 35.2271 36.3169 35.115C36.586 35.0029 36.8746 34.9451 37.1661 34.9451C37.4577 34.9451 37.7463 35.0029 38.0154 35.115C38.2845 35.2271 38.5288 35.3914 38.7341 35.5984L43.4157 40.28C43.6227 40.4853 43.787 40.7296 43.8991 40.9987C44.0112 41.2678 44.069 41.5564 44.069 41.8479C44.069 42.1395 44.0112 42.4281 43.8991 42.6972C43.787 42.9663 43.6227 43.2106 43.4157 43.4159Z" fill="#0300FF" fill-opacity="0.7"/>
</svg>
