<?xml version="1.0" encoding="utf-8"?>
<svg data-name="Layer 1" viewBox="0 0 24 24" xmlns="http://www.w3.org/2000/svg">
  <defs/>
  <path d="M21.66406,10.25244l-9-8a.99893.99893,0,0,0-1.32812,0l-9,8a.99991.99991,0,0,0,1.32812,1.49512L4,11.449V21a.99974.99974,0,0,0,1,1H19a.99974.99974,0,0,0,1-1V11.449l.33594.29859a.99991.99991,0,0,0,1.32812-1.49512ZM9.18427,20a2.98208,2.98208,0,0,1,5.63146,0ZM10.5,14.5A1.5,1.5,0,1,1,12,16,1.50164,1.50164,0,0,1,10.5,14.5ZM18,20H16.89893a5.00092,5.00092,0,0,0-2.25867-3.22821A3.46849,3.46849,0,0,0,15.5,14.5a3.5,3.5,0,0,0-7,0,3.46849,3.46849,0,0,0,.85974,2.27179A5.00092,5.00092,0,0,0,7.10107,20H6V9.6712l6-5.33331L18,9.6712Z" fill="##FFFFFF"/>
  <path d="M 15.394 8.355 L 15.079 8.184 L 12.247 6.633 L 12.211 6.633 C 12.192 6.626 12.172 6.619 12.152 6.615 L 12.091 6.615 L 12.035 6.615 C 12.014 6.619 11.992 6.626 11.972 6.633 L 11.937 6.633 L 9.105 8.184 C 8.893 8.301 8.891 8.6 9.1 8.722 C 9.101 8.722 9.102 8.723 9.105 8.724 L 9.888 9.151 L 9.888 10.621 C 9.888 11.136 10.311 11.552 10.832 11.552 L 13.351 11.552 C 13.873 11.552 14.296 11.136 14.296 10.621 L 14.296 9.151 L 14.925 8.804 L 14.925 9.691 C 14.925 9.93 15.187 10.079 15.397 9.96 C 15.494 9.904 15.555 9.802 15.555 9.691 L 15.555 8.624 C 15.555 8.512 15.493 8.41 15.394 8.355 Z M 13.666 10.621 C 13.666 10.793 13.525 10.931 13.351 10.931 L 10.832 10.931 C 10.659 10.931 10.518 10.793 10.518 10.621 L 10.518 9.496 L 11.937 10.271 L 11.985 10.29 L 12.013 10.29 C 12.04 10.293 12.065 10.293 12.091 10.29 C 12.118 10.293 12.144 10.293 12.17 10.29 L 12.199 10.29 C 12.215 10.287 12.231 10.28 12.247 10.271 L 13.666 9.496 L 13.666 10.621 Z M 12.091 9.648 L 9.908 8.45 L 12.091 7.254 L 14.276 8.45 L 12.091 9.648 Z" fill="##FFFFFF" style=""/>
</svg>